<!DOCTYPE svg PUBLIC "-//W3C//DTD SVG 1.1//EN" "http://www.w3.org/Graphics/SVG/1.1/DTD/svg11.dtd">
<!-- Uploaded to: SVG Repo, www.svgrepo.com, Transformed by: SVG Repo Mixer Tools -->
<svg width="800px" height="800px" viewBox="-2.4 -2.4 28.80 28.80" fill="none" xmlns="http://www.w3.org/2000/svg">
<g id="SVGRepo_bgCarrier" stroke-width="0" transform="translate(5.52,5.52), scale(0.54)">
<path transform="translate(-2.4, -2.4), scale(0.8999999999999999)" d="M16,27.31370796694567C18.86124894453115,27.16505112762986,21.989817617757662,29.1136346009698,24.3820120571674,27.536849852656598C26.778535740890675,25.95721153763793,26.91281193336157,22.54581701988929,27.49700395396008,19.735603032309232C28.018061807071856,17.229091447893914,28.020670514549742,14.762065689187917,27.56121224563883,12.243534429062876C27.030843380698077,9.336305076293655,26.71441868014073,6.210928792210731,24.64483985255041,4.1013987215809316C22.400069706983988,1.8132954318705314,19.205046463405743,0.41346209631067066,16.000000000000004,0.4591440207471962C12.81681243621563,0.5045143875784992,9.837415825646254,2.1495139914452874,7.532368357826071,4.345304898502166C5.418639839629332,6.358845150943195,4.563704615781993,9.220493729036615,3.8351450605383928,12.047399028352762C3.1505173364607466,14.703843141019352,2.966606664689692,17.373176196542797,3.480287922502278,20.067901045144005C4.060516988967646,23.111729605179516,4.278490834529618,26.889858292095674,6.960360995216503,28.441995693770032C9.654460988211437,30.00121113390419,12.891424260573356,27.47521472611119,16,27.31370796694567" fill="#ffffff" strokewidth="0"/>
</g>
<g id="SVGRepo_tracerCarrier" stroke-linecap="round" stroke-linejoin="round"/>
<g id="SVGRepo_iconCarrier"> <path fill-rule="evenodd" clip-rule="evenodd" d="M12 22C7.28595 22 4.92893 22 3.46447 20.5355C2 19.0711 2 16.714 2 12C2 7.28595 2 4.92893 3.46447 3.46447C4.92893 2 7.28595 2 12 2C16.714 2 19.0711 2 20.5355 3.46447C22 4.92893 22 7.28595 22 12C22 16.714 22 19.0711 20.5355 20.5355C19.0711 22 16.714 22 12 22ZM8.96965 8.96967C9.26254 8.67678 9.73742 8.67678 10.0303 8.96967L12 10.9394L13.9696 8.96969C14.2625 8.6768 14.7374 8.6768 15.0303 8.96969C15.3232 9.26258 15.3232 9.73746 15.0303 10.0303L13.0606 12L15.0303 13.9697C15.3232 14.2625 15.3232 14.7374 15.0303 15.0303C14.7374 15.3232 14.2625 15.3232 13.9696 15.0303L12 13.0607L10.0303 15.0303C9.73744 15.3232 9.26256 15.3232 8.96967 15.0303C8.67678 14.7374 8.67678 14.2626 8.96967 13.9697L10.9393 12L8.96965 10.0303C8.67676 9.73744 8.67676 9.26256 8.96965 8.96967Z" fill="#106fd5"/> </g>
</svg>